<svg xmlns="http://www.w3.org/2000/svg" xmlns:xlink="http://www.w3.org/1999/xlink" width="200" zoomAndPan="magnify" viewBox="0 0 150 149.999998" height="200" preserveAspectRatio="xMidYMid meet" version="1.0"><defs><clipPath id="228a6ffc55"><path d="M 15 33 L 150 33 L 150 146.917969 L 15 146.917969 Z M 15 33 " clip-rule="nonzero"/></clipPath></defs><path fill="#e85984" d="M 1 22.648438 C 9.144531 17.351562 17.296875 12.085938 25.421875 6.765625 C 25.40625 44.355469 25.449219 81.949219 25.402344 119.535156 C 22.210938 121.660156 18.964844 123.699219 15.777344 125.832031 C 11.667969 128.390625 7.613281 131.039062 3.589844 133.738281 C 2.796875 134.292969 1.941406 134.75 1.050781 135.121094 C 1.011719 97.632812 1.105469 60.136719 1 22.648438 Z M 1 22.648438 " fill-opacity="1" fill-rule="nonzero"/><path fill="#e51050" d="M 25.421875 6.765625 C 61.347656 6.769531 97.277344 6.757812 133.199219 6.769531 C 136.949219 6.820312 140.5625 9.773438 140.867188 13.601562 C 141.011719 20.335938 140.773438 27.082031 140.988281 33.820312 C 141.066406 59.59375 140.996094 85.371094 141.019531 111.148438 C 140.96875 113.96875 141.152344 116.792969 140.925781 119.609375 C 128.894531 119.730469 116.855469 119.621094 104.820312 119.65625 C 79.777344 119.65625 54.734375 119.65625 29.691406 119.660156 C 28.261719 119.683594 26.824219 119.691406 25.402344 119.535156 C 25.449219 81.949219 25.40625 44.355469 25.421875 6.765625 M 74.773438 30.210938 C 72.386719 37.113281 70.484375 44.175781 68.265625 51.128906 C 64.121094 64.699219 59.972656 78.269531 55.824219 91.839844 C 55.441406 92.921875 55.121094 94.027344 54.933594 95.164062 C 58.859375 95.222656 62.789062 95.253906 66.710938 95.152344 C 68.21875 89.933594 69.746094 84.722656 71.199219 79.488281 C 71.34375 79.023438 71.53125 78.582031 71.714844 78.136719 C 79.152344 78.15625 86.597656 78.039062 94.039062 78.195312 C 95.824219 83.863281 97.527344 89.5625 99.421875 95.191406 C 103.433594 95.214844 107.449219 95.238281 111.457031 95.167969 C 109.078125 87.183594 106.371094 79.304688 103.898438 71.355469 C 99.433594 57.660156 95.136719 43.910156 90.648438 30.226562 C 85.359375 30.097656 80.0625 30.125 74.773438 30.210938 Z M 74.773438 30.210938 " fill-opacity="1" fill-rule="nonzero"/><path fill="#e51050" d="M 82.558594 38.652344 C 83.324219 40.484375 83.628906 42.464844 84.246094 44.347656 C 86.515625 52.429688 88.917969 60.480469 91.089844 68.589844 C 85.511719 68.667969 79.929688 68.671875 74.347656 68.589844 C 76.917969 58.570312 79.929688 48.660156 82.558594 38.652344 Z M 82.558594 38.652344 " fill-opacity="1" fill-rule="nonzero"/><path fill="#231f20" d="M 0.902344 28.023438 C 0.941406 26.230469 0.773438 24.433594 1 22.648438 C 1.105469 60.136719 1.011719 97.632812 1.050781 135.121094 L 1.035156 135.503906 C 0.746094 134.359375 0.914062 133.179688 0.898438 132.023438 C 0.902344 97.359375 0.898438 62.6875 0.902344 28.023438 Z M 0.902344 28.023438 " fill-opacity="1" fill-rule="nonzero"/><path fill="#ffffff" d="M 74.773438 30.210938 C 80.0625 30.125 85.359375 30.097656 90.648438 30.226562 C 95.136719 43.910156 99.433594 57.660156 103.898438 71.355469 C 106.371094 79.304688 109.078125 87.183594 111.457031 95.167969 C 107.449219 95.238281 103.433594 95.214844 99.421875 95.191406 C 97.527344 89.5625 95.824219 83.863281 94.039062 78.195312 C 86.597656 78.039062 79.152344 78.15625 71.714844 78.136719 C 71.53125 78.582031 71.34375 79.023438 71.199219 79.488281 C 69.746094 84.722656 68.21875 89.933594 66.710938 95.152344 C 62.789062 95.253906 58.859375 95.222656 54.933594 95.164062 C 55.121094 94.027344 55.441406 92.921875 55.824219 91.839844 C 59.972656 78.269531 64.121094 64.699219 68.265625 51.128906 C 70.484375 44.175781 72.386719 37.113281 74.773438 30.210938 M 82.558594 38.652344 C 79.929688 48.660156 76.917969 58.570312 74.347656 68.589844 C 79.929688 68.671875 85.511719 68.667969 91.089844 68.589844 C 88.917969 60.480469 86.515625 52.429688 84.246094 44.347656 C 83.628906 42.464844 83.324219 40.484375 82.558594 38.652344 Z M 82.558594 38.652344 " fill-opacity="1" fill-rule="nonzero"/><g clip-path="url(#228a6ffc55)"><path fill="#770829" d="M 140.988281 33.820312 C 144.191406 33.421875 147.445312 33.625 150.664062 33.6875 C 150.828125 42.167969 150.6875 50.660156 150.734375 59.148438 C 150.734375 86.222656 150.738281 113.300781 150.734375 140.375 C 150.714844 142.390625 150.804688 144.40625 150.667969 146.421875 C 108.921875 146.488281 67.171875 146.417969 25.421875 146.453125 C 22.945312 146.445312 20.222656 146.21875 18.300781 144.476562 C 16.859375 143.121094 15.738281 141.253906 15.785156 139.21875 C 15.773438 134.757812 15.78125 130.296875 15.777344 125.832031 C 18.964844 123.699219 22.210938 121.660156 25.402344 119.535156 C 26.824219 119.691406 28.261719 119.683594 29.691406 119.660156 C 54.734375 119.65625 79.777344 119.65625 104.820312 119.65625 C 116.855469 119.621094 128.894531 119.730469 140.925781 119.609375 C 141.152344 116.792969 140.96875 113.96875 141.019531 111.148438 C 140.996094 85.371094 141.066406 59.59375 140.988281 33.820312 Z M 140.988281 33.820312 " fill-opacity="1" fill-rule="nonzero"/></g></svg>